<svg xmlns="http://www.w3.org/2000/svg" style="display: none;"><symbol id="001-transport-13" viewBox="0 0 507.9 507.9"><title>001-transport-13</title><path style="fill:#FFD15C;" d="M21.1,398.95h465.7c11.7,0,21.1-9.5,21.1-21.1v-85.5c0-11-3.7-21.7-10.6-30.4l-84.5-106.1 c-9.2-11.6-23.3-18.4-38.1-18.4h-86.3v156.1H0v84.3C0,389.45,9.5,398.95,21.1,398.95z"/><path style="fill:#FFFFFF;" d="M473.3,276.85l-82.5-103.5c-3.9-4.9-9.8-7.7-16.1-7.7h-58.1v111.3h156.7V276.85z"/><path style="fill:#F2F2F2;" d="M267.3,49.75H21.1C9.5,49.75,0,59.25,0,70.85v222.6h288.4V70.85C288.4,59.25,279,49.75,267.3,49.75z"/><g> <circle style="fill:#40596B;" cx="100.8" cy="398.95" r="59.2"/> <circle style="fill:#40596B;" cx="412.4" cy="398.95" r="59.2"/> </g><g> <circle style="fill:#FFFFFF;" cx="100.8" cy="398.95" r="29.4"/> <circle style="fill:#FFFFFF;" cx="412.4" cy="398.95" r="29.4"/> </g><g> <rect x="24.6" y="75.35" style="fill:#CDD6E0;" width="239.3" height="28.1"/> <rect x="24.6" y="130.15" style="fill:#CDD6E0;" width="239.3" height="28.1"/> <rect x="24.6" y="184.95" style="fill:#CDD6E0;" width="239.3" height="28.1"/> <rect x="24.6" y="239.85" style="fill:#CDD6E0;" width="239.3" height="28.1"/> </g></symbol><symbol id="002-transport-12" viewBox="0 0 503.322 503.322"><title>002-transport-12</title><g> <path style="fill:#797979;" d="M112.814,377.492c0-23.96-19.43-43.39-43.39-43.39s-43.39,19.43-43.39,43.39 c0,23.96,19.43,43.39,43.39,43.39S112.814,401.451,112.814,377.492"/> <path style="fill:#797979;" d="M199.593,377.492c0-23.96-19.43-43.39-43.39-43.39s-43.39,19.43-43.39,43.39 c0,23.96,19.43,43.39,43.39,43.39S199.593,401.451,199.593,377.492"/> <path style="fill:#797979;" d="M477.288,377.492c0-23.96-19.43-43.39-43.39-43.39c-23.96,0-43.39,19.43-43.39,43.39 c0,23.96,19.43,43.39,43.39,43.39C457.858,420.881,477.288,401.451,477.288,377.492"/> </g><g> <path style="fill:#C0C0C0;" d="M69.424,394.847c-9.58,0-17.356-7.775-17.356-17.356s7.775-17.356,17.356-17.356 s17.356,7.775,17.356,17.356S79.004,394.847,69.424,394.847"/> <path style="fill:#C0C0C0;" d="M156.203,394.847c-9.58,0-17.356-7.775-17.356-17.356s7.775-17.356,17.356-17.356 s17.356,7.775,17.356,17.356S165.784,394.847,156.203,394.847"/> <path style="fill:#C0C0C0;" d="M433.898,394.847c-9.58,0-17.356-7.775-17.356-17.356s7.775-17.356,17.356-17.356 s17.356,7.775,17.356,17.356S443.479,394.847,433.898,394.847"/> </g><polygon style="fill:#FFD479;" points="8.682,308.068 373.157,308.068 373.157,82.441 8.682,82.441 "/><path style="fill:#F16E5B;" d="M494.644,308.068H373.153V134.508h74.344c26.043,0,47.147,21.105,47.147,47.147V308.068z"/><path style="fill:#B1D3F0;" d="M399.186,238.644v-78.102h40.561c15.941,0,28.863,12.921,28.863,28.863v49.239H399.186z"/><g> <path style="fill:#E2B566;" d="M60.746,282.034c-4.799,0-8.678-3.879-8.678-8.678V117.153c0-4.799,3.879-8.678,8.678-8.678 s8.678,3.879,8.678,8.678v156.203C69.424,278.155,65.545,282.034,60.746,282.034"/> <path style="fill:#E2B566;" d="M112.814,282.034c-4.799,0-8.678-3.879-8.678-8.678V117.153c0-4.799,3.879-8.678,8.678-8.678 c4.799,0,8.678,3.879,8.678,8.678v156.203C121.492,278.155,117.612,282.034,112.814,282.034"/> <path style="fill:#E2B566;" d="M164.881,282.034c-4.799,0-8.678-3.879-8.678-8.678V117.153c0-4.799,3.879-8.678,8.678-8.678 c4.799,0,8.678,3.879,8.678,8.678v156.203C173.559,278.155,169.68,282.034,164.881,282.034"/> <path style="fill:#E2B566;" d="M216.949,282.034c-4.799,0-8.678-3.879-8.678-8.678V117.153c0-4.799,3.879-8.678,8.678-8.678 c4.799,0,8.678,3.879,8.678,8.678v156.203C225.627,278.155,221.748,282.034,216.949,282.034"/> <path style="fill:#E2B566;" d="M269.017,282.034c-4.799,0-8.678-3.879-8.678-8.678V117.153c0-4.799,3.879-8.678,8.678-8.678 c4.799,0,8.678,3.879,8.678,8.678v156.203C277.695,278.155,273.816,282.034,269.017,282.034"/> <path style="fill:#E2B566;" d="M321.085,282.034c-4.799,0-8.678-3.879-8.678-8.678V117.153c0-4.799,3.879-8.678,8.678-8.678 s8.678,3.879,8.678,8.678v156.203C329.763,278.155,325.884,282.034,321.085,282.034"/> </g><g> <path style="fill:#C14A3E;" d="M0,308.068v69.424h26.034c0-23.96,19.43-43.39,43.39-43.39s43.39,19.43,43.39,43.39 c0-23.96,19.43-43.39,43.39-43.39s43.39,19.43,43.39,43.39h190.915c0-23.96,19.43-43.39,43.39-43.39 c23.96,0,43.39,19.43,43.39,43.39h26.034v-69.424H0z"/> <path style="fill:#C14A3E;" d="M416.542,273.356h-17.356c-4.799,0-8.678-3.879-8.678-8.678c0-4.799,3.879-8.678,8.678-8.678 h17.356c4.799,0,8.678,3.879,8.678,8.678C425.22,269.477,421.341,273.356,416.542,273.356"/> </g></symbol><symbol id="003-transport-11" viewBox="0 0 496.246 496.246"><title>003-transport-11</title><path style="fill:#FF7F00;" d="M471.135,68.332H250.785v6.451c0-15.328-12.446,12.69-27.758,12.69H93.468 c-15.321,0-27.75,12.43-27.75,27.75L4.427,321.118c0,15.344,12.414,27.758,27.758,27.758H172.93h50.089h248.115 c6.845,0,12.383-5.537,12.383-12.367V80.699C483.525,73.862,477.987,68.332,471.135,68.332z"/><path style="fill:#E56505;" d="M18.188,274.857L4.427,321.119c0,15.344,12.414,27.758,27.758,27.758H172.93h50.089h248.115 c6.845,0,12.383-5.537,12.383-12.367v-61.653H18.188z"/><path style="fill:#528099;" d="M153.624,114.475H65.788c0,0.252-0.071,0.496-0.071,0.756l-26.726,89.773 c1.434,0.221,2.867,0.457,4.372,0.457h110.261c15.321,0,27.758-12.43,27.758-27.758v-35.47 C181.382,126.889,168.944,114.475,153.624,114.475z"/><path style="fill:#C1E5F4;" d="M54.918,282.199c0,14.249-3.277,25.813-7.333,25.813c-4.033,0-7.318-11.571-7.318-25.813 c0-14.281,3.285-25.836,7.318-25.836C51.641,256.362,54.918,267.918,54.918,282.199z"/><path style="fill:#D9F5FF;" d="M47.584,308.019c-4.033,0-7.318-11.571-7.318-25.813c0-14.281,3.285-25.836,7.318-25.836"/><g> <path style="fill:#1D5777;" d="M108.19,205.462l71.719-71.719c-2.576-7.971-8.562-14.336-16.321-17.337l-89.049,89.056H108.19z"/> <path style="fill:#1D5777;" d="M125.424,205.462h28.199c15.321,0,27.758-12.43,27.758-27.758v-28.199L125.424,205.462z"/> <path style="fill:#1D5777;" d="M93.538,114.475h-27.75c0,0.252-0.071,0.496-0.071,0.756l-11.485,38.534L93.538,114.475z"/> <path style="fill:#1D5777;" d="M496.246,359.944c0,5.711-4.632,10.342-10.342,10.342H10.335C4.608,370.294,0,365.655,0,359.944 V324.34c0-5.727,4.608-10.342,10.335-10.342h475.561c5.719,0,10.342,4.624,10.342,10.342v35.604H496.246z"/> </g><path style="fill:#1E759B;" d="M485.904,313.998H10.335C4.608,313.998,0,318.622,0,324.348v7.845 c0,5.711,4.608,10.335,10.335,10.335h475.561c5.719,0,10.342-4.632,10.342-10.335v-7.845 C496.246,318.622,491.615,313.998,485.904,313.998z"/><path style="fill:#FFC41F;" d="M135.459,376.596c0,19.259-15.636,34.895-34.911,34.895c-19.259,0-34.895-15.628-34.895-34.895 c0-19.291,15.628-34.926,34.895-34.926C119.824,341.669,135.459,357.297,135.459,376.596z"/><path style="fill:#FFA522;" d="M100.557,341.669c19.267,0,34.911,15.628,34.911,34.926c0,19.259-15.636,34.895-34.911,34.895"/><path style="fill:#1A3D5B;" d="M100.557,427.914c-28.302,0-51.326-23.032-51.326-51.326c0-28.325,23.024-51.342,51.326-51.342 c28.31,0,51.334,23.016,51.334,51.342C151.883,404.882,128.859,427.914,100.557,427.914z M100.557,358.101 c-10.185,0-18.471,8.302-18.471,18.495c0,10.177,8.287,18.464,18.471,18.464c10.193,0,18.495-8.287,18.495-18.464 C119.044,366.403,110.75,358.101,100.557,358.101z"/><circle style="fill:#FFC41F;" cx="402.038" cy="376.58" r="34.911"/><path style="fill:#FFA522;" d="M377.328,351.894c13.627-13.619,35.745-13.619,49.365,0c13.635,13.627,13.619,35.738,0,49.373"/><path style="fill:#1A3D5B;" d="M438.319,412.877c-20.023,20.023-52.586,20.023-72.609,0c-20.015-20.023-20.015-52.571,0-72.586 c20.023-20.039,52.586-20.039,72.609,0C458.327,360.306,458.327,392.854,438.319,412.877z M388.962,363.504 c-7.223,7.207-7.223,18.928,0,26.136c7.2,7.207,18.913,7.207,26.12,0s7.207-18.928,0-26.136 C407.875,356.313,396.162,356.313,388.962,363.504z"/><g> <path style="fill:#FFD400;" d="M444.44,151.308c0,4.97-4.033,8.995-9.011,8.995H291.454c-4.97,0-9.019-4.025-9.019-8.995l0,0 c0-4.97,4.049-9.003,9.019-9.003h143.974C440.407,142.304,444.44,146.337,444.44,151.308L444.44,151.308z"/> <path style="fill:#FFD400;" d="M408.151,187.573c0,4.986-4.033,9.011-9.003,9.011h-143.99c-4.962,0-8.995-4.025-8.995-9.011l0,0 c0-4.97,4.033-8.995,8.995-8.995h143.99C404.126,178.586,408.151,182.611,408.151,187.573L408.151,187.573z"/> <path style="fill:#FFD400;" d="M371.885,223.862c0,4.986-4.049,9.011-9.019,9.011h-143.99c-4.955,0-8.995-4.025-8.995-9.011l0,0 c0-4.97,4.041-8.995,8.995-8.995h143.99C367.837,214.867,371.885,218.892,371.885,223.862L371.885,223.862z"/> </g></symbol><symbol id="004-transport-10" viewBox="0 0 503.322 503.322"><title>004-transport-10</title><path style="fill:#797979;" d="M451.251,381.831c0-23.96-19.43-43.39-43.39-43.39c-23.96,0-43.39,19.43-43.39,43.39 c0,23.96,19.43,43.39,43.39,43.39C431.821,425.22,451.251,405.79,451.251,381.831"/><path style="fill:#48A0DC;" d="M497.864,292.868l-37.931-15.178l-22.754-90.988c-1.926-7.723-8.869-13.147-16.835-13.147H312.407 v95.458H0v104.136c0,4.799,3.879,8.678,8.678,8.678h43.39c0-23.96,19.421-43.39,43.39-43.39c23.96,0,43.39,19.43,43.39,43.39 h190.915h34.712c0-23.96,19.421-43.39,43.39-43.39c23.96,0,43.39,19.43,43.39,43.39h43.39c4.79,0,8.678-3.879,8.678-8.678v-72.227 C503.322,297.381,501.161,294.187,497.864,292.868"/><polygon style="fill:#C69666;" points="164.882,199.593 286.374,199.593 286.374,78.102 164.882,78.102 "/><polygon style="fill:#896745;" points="43.391,199.593 164.882,199.593 164.882,112.814 43.391,112.814 "/><path style="fill:#797979;" d="M138.844,381.831c0-23.96-19.43-43.39-43.39-43.39s-43.39,19.43-43.39,43.39 c0,23.96,19.43,43.39,43.39,43.39S138.844,405.79,138.844,381.831"/><g> <path style="fill:#C0C0C0;" d="M95.454,399.186c-9.58,0-17.356-7.775-17.356-17.356s7.775-17.356,17.356-17.356 s17.356,7.775,17.356,17.356S105.035,399.186,95.454,399.186"/> <path style="fill:#C0C0C0;" d="M407.861,399.186c-9.58,0-17.356-7.775-17.356-17.356s7.775-17.356,17.356-17.356 s17.356,7.775,17.356,17.356S417.441,399.186,407.861,399.186"/> </g><path style="fill:#337FAA;" d="M381.827,321.085h-17.356c-4.79,0-8.678-3.888-8.678-8.678c0-4.79,3.888-8.678,8.678-8.678h17.356 c4.79,0,8.678,3.888,8.678,8.678C390.505,317.197,386.617,321.085,381.827,321.085"/><g> <polygon style="fill:#E8D5B2;" points="130.166,164.881 104.132,147.525 78.098,164.881 78.098,112.814 130.166,112.814 "/> <polygon style="fill:#E8D5B2;" points="251.658,130.169 225.624,112.814 199.59,130.169 199.59,78.102 251.658,78.102 "/> </g><polygon style="fill:#FFD479;" points="26.035,269.017 312.408,269.017 312.408,199.593 26.035,199.593 "/><path style="fill:#337FAA;" d="M373.149,216.949c0-4.79-3.888-8.678-8.678-8.678c-4.79,0-8.678,3.888-8.678,8.678v60.746 c0,4.79,3.888,8.678,8.678,8.678h117.153l-21.695-8.678l-2.169-8.678h-84.61V216.949z"/></symbol><symbol id="005-transport-9" viewBox="0 0 512.036 512.036"><title>005-transport-9</title><path style="fill:#E6594A;" d="M491.175,178.132H455.43c-28.915,0-55.765-15.004-70.916-39.624l-29.965-48.692 c-9.363-15.23-25.964-24.498-43.832-24.498H133.955c-17.885,0-34.486,9.285-43.85,24.533L46.95,160.108 c-6.882,11.203-19.092,18.024-32.23,18.024h-0.425c-7.402,0-13.312,5.901-13.295,13.208c0.017,19.17,0.026,54.923,0.035,77.972 c0,11.976,9.711,21.634,21.686,21.634h2.994c-0.417-0.989-0.981-1.944-1.848-2.803l467.413-0.92 c7.793-4.591,13.078-12.982,13.078-22.676v-73.233C504.357,184.033,498.456,178.132,491.175,178.132"/><path style="fill:#E0E0E0;" d="M384.513,138.506l-23.674-38.478H129.711c-3.966,0-7.185,3.22-7.185,7.185v37.697 c0,3.975,3.22,7.185,7.185,7.185H395.17C391.23,147.948,387.577,143.487,384.513,138.506"/><path style="fill:#494949;" d="M244.018,152.098h17.356v-52.068h-17.356V152.098z"/><g> <path style="fill:#B73127;" d="M469.645,212.844c-4.79,0-8.678,3.879-8.678,8.678c0,4.799,3.888,8.678,8.678,8.678h34.712v-17.356 H469.645z"/> <path style="fill:#B73127;" d="M44.425,221.522c0-4.799-3.888-8.678-8.678-8.678H1.035H1.017c0,5.571,0,11.385,0.009,17.356h0.009 h34.712C40.537,230.2,44.425,226.321,44.425,221.522"/> </g><path style="fill:#494949;" d="M122.512,228.764L122.512,228.764c1.267,8.218,12.331,9.962,16.08,2.543l0,0 c4.4-8.721,17.625-4.417,16.063,5.224l0,0c-1.328,8.209,8.643,13.286,14.501,7.394c6.882-6.942,18.137,1.241,13.668,9.928 c-3.801,7.394,4.122,15.308,11.507,11.507c8.695-4.469,16.87,6.786,9.936,13.668c-5.901,5.858-0.816,15.837,7.385,14.501 c9.641-1.562,13.945,11.663,5.224,16.072c-7.42,3.74-5.675,14.805,2.543,16.072l0,0c9.659,1.493,9.659,15.403,0,16.896l0,0 c-8.218,1.267-9.962,12.331-2.543,16.072c8.721,4.408,4.417,17.634-5.224,16.072c-8.201-1.336-13.286,8.643-7.385,14.501 c6.934,6.882-1.241,18.137-9.936,13.668c-7.385-3.801-15.308,4.113-11.507,11.507c4.469,8.687-6.786,16.861-13.668,9.928 c-5.858-5.892-15.829-0.816-14.501,7.394c1.562,9.641-11.663,13.945-16.063,5.215l0,0c-3.749-7.42-14.813-5.667-16.08,2.551l0,0 c-1.493,9.659-15.403,9.659-16.896,0l0,0c-1.267-8.218-12.331-9.971-16.072-2.551c-4.408,8.73-17.634,4.426-16.072-5.215 c1.336-8.209-8.643-13.286-14.501-7.394c-6.882,6.934-18.137-1.241-13.668-9.928c3.801-7.394-4.113-15.308-11.507-11.507l0,0 c-8.687,4.469-16.861-6.786-9.928-13.668c5.901-5.858,0.816-15.837-7.394-14.501l0,0c-9.641,1.562-13.937-11.663-5.215-16.072l0,0 c7.42-3.74,5.667-14.805-2.551-16.072c-9.65-1.493-9.65-15.403,0-16.896c8.218-1.267,9.971-12.331,2.551-16.072l0,0 c-8.721-4.408-4.426-17.634,5.215-16.072l0,0c8.209,1.336,13.295-8.643,7.394-14.501c-6.934-6.882,1.241-18.137,9.928-13.668l0,0 c7.394,3.801,15.308-4.113,11.507-11.507c-4.469-8.687,6.786-16.87,13.668-9.928c5.858,5.892,15.837,0.816,14.501-7.394l0,0 c-1.562-9.641,11.663-13.945,16.072-5.224l0,0c3.74,7.42,14.805,5.675,16.072-2.543 C107.109,219.105,121.02,219.105,122.512,228.764"/><path style="fill:#A2A2A2;" d="M175.029,333.901c0,33.549-27.197,60.746-60.746,60.746s-60.746-27.197-60.746-60.746 s27.197-60.746,60.746-60.746S175.029,300.352,175.029,333.901"/><path style="fill:#494949;" d="M408.885,228.764L408.885,228.764c1.267,8.218,12.331,9.962,16.08,2.543l0,0 c4.4-8.721,17.625-4.417,16.063,5.224l0,0c-1.328,8.209,8.643,13.286,14.501,7.394c6.882-6.942,18.137,1.241,13.668,9.928 c-3.801,7.394,4.122,15.308,11.507,11.507c8.695-4.469,16.87,6.786,9.936,13.668c-5.901,5.858-0.816,15.837,7.385,14.501 c9.641-1.562,13.945,11.663,5.224,16.072c-7.42,3.74-5.675,14.805,2.543,16.072l0,0c9.659,1.493,9.659,15.403,0,16.896l0,0 c-8.218,1.267-9.962,12.331-2.543,16.072c8.721,4.408,4.417,17.634-5.224,16.072c-8.201-1.336-13.286,8.643-7.385,14.501 c6.934,6.882-1.241,18.137-9.936,13.668c-7.385-3.801-15.308,4.113-11.507,11.507c4.469,8.687-6.786,16.861-13.668,9.928 c-5.858-5.892-15.829-0.816-14.501,7.394c1.562,9.641-11.663,13.945-16.063,5.215l0,0c-3.749-7.42-14.813-5.667-16.08,2.551l0,0 c-1.493,9.659-15.403,9.659-16.896,0l0,0c-1.267-8.218-12.331-9.971-16.072-2.551c-4.408,8.73-17.634,4.426-16.072-5.215 c1.336-8.209-8.643-13.286-14.501-7.394c-6.882,6.934-18.137-1.241-13.668-9.928c3.801-7.394-4.113-15.308-11.507-11.507l0,0 c-8.687,4.469-16.861-6.786-9.928-13.668c5.901-5.858,0.816-15.837-7.394-14.501l0,0c-9.641,1.562-13.937-11.663-5.215-16.072l0,0 c7.42-3.74,5.667-14.805-2.551-16.072c-9.65-1.493-9.65-15.403,0-16.896c8.218-1.267,9.971-12.331,2.551-16.072l0,0 c-8.721-4.408-4.426-17.634,5.215-16.072l0,0c8.209,1.336,13.295-8.643,7.394-14.501c-6.934-6.882,1.241-18.137,9.928-13.668l0,0 c7.394,3.801,15.308-4.113,11.507-11.507c-4.469-8.687,6.786-16.87,13.668-9.928c5.858,5.892,15.837,0.816,14.501-7.394l0,0 c-1.562-9.641,11.663-13.945,16.072-5.224l0,0c3.74,7.42,14.805,5.675,16.072-2.543 C393.482,219.105,407.393,219.105,408.885,228.764"/><path style="fill:#A2A2A2;" d="M461.402,333.901c0,33.549-27.197,60.746-60.746,60.746s-60.746-27.197-60.746-60.746 s27.197-60.746,60.746-60.746S461.402,300.352,461.402,333.901"/><g> <path style="fill:#494949;" d="M131.639,333.901c0,9.589-7.767,17.356-17.356,17.356s-17.356-7.767-17.356-17.356 c0-9.589,7.767-17.356,17.356-17.356S131.639,324.312,131.639,333.901"/> <path style="fill:#494949;" d="M418.012,333.901c0,9.589-7.767,17.356-17.356,17.356c-9.589,0-17.356-7.767-17.356-17.356 c0-9.589,7.767-17.356,17.356-17.356C410.245,316.545,418.012,324.312,418.012,333.901"/> </g></symbol><symbol id="006-transport-8" viewBox="0 0 496.246 496.246"><title>006-transport-8</title><path style="fill:#1A3D5B;" d="M471.135,68.332H250.778v6.451c0-15.328-12.446,12.69-27.758,12.69H93.468 c-15.321,0-27.75,12.43-27.75,27.75L4.427,321.118c0,15.344,12.414,27.758,27.758,27.758h140.753h50.089h248.115 c6.845,0,12.383-5.537,12.383-12.367V80.699C483.525,73.862,477.98,68.332,471.135,68.332z"/><path style="fill:#0A2438;" d="M18.188,274.857L4.419,321.119c0,15.344,12.414,27.758,27.758,27.758H172.93h50.089h248.115 c6.845,0,12.383-5.537,12.383-12.367v-61.653H18.188z"/><path style="fill:#528099;" d="M153.624,114.475H65.788c0,0.252-0.063,0.496-0.063,0.756l-26.734,89.773 c1.434,0.221,2.867,0.457,4.372,0.457h110.269c15.328,0,27.758-12.43,27.758-27.758v-35.47 C181.382,126.889,168.952,114.475,153.624,114.475z"/><path style="fill:#C1E5F4;" d="M54.91,282.199c0,14.249-3.269,25.813-7.326,25.813c-4.033,0-7.318-11.571-7.318-25.813 c0-14.281,3.285-25.836,7.318-25.836C51.641,256.362,54.91,267.918,54.91,282.199z"/><path style="fill:#D9F5FF;" d="M47.584,308.019c-4.033,0-7.318-11.571-7.318-25.813c0-14.281,3.285-25.836,7.318-25.836"/><g> <path style="fill:#1D5777;" d="M108.19,205.462l71.719-71.719c-2.576-7.971-8.554-14.336-16.321-17.337l-89.049,89.056H108.19z"/> <path style="fill:#1D5777;" d="M125.424,205.462h28.199c15.328,0,27.758-12.43,27.758-27.758v-28.199L125.424,205.462z"/> <path style="fill:#1D5777;" d="M93.538,114.475h-27.75c0,0.252-0.063,0.496-0.063,0.756L54.24,153.765L93.538,114.475z"/> </g><path style="fill:#FFA522;" d="M496.246,359.944c0,5.711-4.632,10.342-10.342,10.342H10.335C4.608,370.294,0,365.655,0,359.944 V324.34c0-5.727,4.608-10.342,10.335-10.342h475.569c5.711,0,10.342,4.624,10.342,10.342V359.944z"/><g> <path style="fill:#FFC41F;" d="M485.904,313.998H10.335C4.608,313.998,0,318.622,0,324.348v7.845 c0,5.711,4.608,10.335,10.335,10.335h475.569c5.711,0,10.342-4.632,10.342-10.335v-7.845 C496.246,318.622,491.615,313.998,485.904,313.998z"/> <path style="fill:#FFC41F;" d="M135.467,376.596c0,19.259-15.644,34.895-34.911,34.895s-34.895-15.628-34.895-34.895 c0-19.291,15.628-34.926,34.895-34.926S135.467,357.297,135.467,376.596z"/> </g><path style="fill:#FFA522;" d="M100.557,341.669c19.267,0,34.911,15.628,34.911,34.926c0,19.259-15.644,34.895-34.911,34.895"/><path style="fill:#1A3D5B;" d="M100.557,427.914c-28.302,0-51.326-23.032-51.326-51.326c0-28.325,23.016-51.342,51.326-51.342 s51.326,23.016,51.326,51.342C151.883,404.882,128.859,427.914,100.557,427.914z M100.557,358.101 c-10.193,0-18.479,8.302-18.479,18.495c0,10.177,8.287,18.464,18.479,18.464s18.495-8.287,18.495-18.464 C119.052,366.403,110.75,358.101,100.557,358.101z"/><circle style="fill:#FFC41F;" cx="402.038" cy="376.58" r="34.903"/><path style="fill:#FFA522;" d="M377.336,351.894c13.627-13.619,35.738-13.619,49.357,0c13.643,13.627,13.627,35.738,0,49.373"/><path style="fill:#1A3D5B;" d="M438.319,412.877c-20.023,20.023-52.578,20.023-72.602,0c-20.023-20.023-20.023-52.571,0-72.586 c20.023-20.039,52.578-20.039,72.602,0C458.327,360.306,458.327,392.854,438.319,412.877z M388.962,363.504 c-7.223,7.207-7.223,18.928,0,26.136c7.192,7.207,18.913,7.207,26.12,0c7.2-7.207,7.2-18.928,0-26.136 C407.883,356.313,396.154,356.313,388.962,363.504z"/><g> <path style="fill:#FFC41F;" d="M303.206,239.293h-37.053c23.182-22.481,40.669-41.913,40.669-66.19 c0-20.385-13.257-40.952-42.803-40.952c-13.989,0-27.38,4.813-37.715,13.556c-2.206,1.89-2.922,5.002-1.733,7.656l5.104,11.311 c0.835,1.843,2.505,3.198,4.49,3.671c1.961,0.473,4.057-0.047,5.616-1.355c3.797-3.174,11.603-8.523,20.953-8.523 c11.453,0,17.006,5.451,17.006,16.581c-0.15,15.006-12.524,29.168-42.134,57.344l-12.564,12.209 c-1.26,1.213-1.969,2.907-1.969,4.671v9.838c0,3.592,2.907,6.498,6.514,6.498h75.618c3.616,0,6.514-2.907,6.514-6.498v-13.304 C309.713,242.2,306.822,239.293,303.206,239.293z"/> <path style="fill:#FFC41F;" d="M404.362,207.762h-10.075v-67.104c0-3.592-2.922-6.498-6.514-6.498h-17.321 c-2.111,0-4.12,1.048-5.341,2.773l-52.838,75.634c-0.764,1.095-1.174,2.379-1.174,3.718v10.571c0,3.584,2.907,6.491,6.506,6.491 h48.514v25.765c0,3.592,2.922,6.498,6.522,6.498h15.132c3.592,0,6.514-2.907,6.514-6.498v-25.765h10.075 c3.584,0,6.491-2.907,6.491-6.491v-12.572C410.852,210.668,407.946,207.762,404.362,207.762z M346.262,207.762l19.858-27.672 v27.672H346.262z"/> </g><g> <path style="fill:#FFA522;" d="M309.713,259.104v-13.304c0-3.592-2.891-6.498-6.514-6.498h-24.773h-12.28 c23.182-22.481,40.669-41.913,40.669-66.19c0-18.897-11.422-37.935-36.659-40.598c-11.729,1.189-22.764,5.75-31.579,13.202 c-2.206,1.89-2.922,5.002-1.733,7.656l5.104,11.311c0.079,0.158,0.244,0.244,0.323,0.41c4.246-3.04,10.815-6.617,18.464-6.617 c2.363,0,4.411,0.284,6.262,0.756c1.914-0.457,3.931-0.756,6.018-0.756c11.453,0,17.006,5.451,17.006,16.581 c-0.142,15.006-12.516,29.168-42.134,57.344l-12.564,12.209c-1.268,1.213-1.977,2.907-1.977,4.671v9.838 c0,3.592,2.907,6.498,6.514,6.498h63.338C306.822,265.602,309.713,262.695,309.713,259.104z"/> <path style="fill:#FFA522;" d="M394.287,259.104v-25.765h81.967c3.592,0,6.498-2.907,6.498-6.491v-12.572 c0-3.608-2.907-6.514-6.498-6.514h-81.967v-67.104c0-3.592-2.922-6.498-6.514-6.498h-5.041c-2.111,0-4.12,1.048-5.341,2.773 l-52.831,75.634c-0.772,1.095-1.182,2.379-1.182,3.718v10.571c0,3.584,2.907,6.491,6.506,6.491h36.234h12.28v25.765 c0,3.592,2.922,6.498,6.522,6.498h2.851C391.365,265.602,394.287,262.695,394.287,259.104z M378.407,207.762h-12.28h-7.578h-12.28 l19.858-27.672v17.101l12.28-17.101V207.762z"/> <path style="fill:#FFA522;" d="M483.037,186.25c0,1.875-1.512,3.395-3.395,3.395h-72.208c-1.875,0-3.395-1.512-3.395-3.395l0,0 c0-1.859,1.512-3.395,3.395-3.395h72.208C481.524,182.855,483.037,184.383,483.037,186.25L483.037,186.25z"/> <path style="fill:#FFA522;" d="M483.037,167.834c0,1.875-1.512,3.395-3.395,3.395h-72.208c-1.875,0-3.395-1.512-3.395-3.395l0,0 c0-1.859,1.512-3.395,3.395-3.395h72.208C481.524,164.439,483.037,165.967,483.037,167.834L483.037,167.834z"/> <path style="fill:#FFA522;" d="M483.037,149.417c0,1.875-1.512,3.395-3.395,3.395h-72.208c-1.875,0-3.395-1.512-3.395-3.395l0,0 c0-1.859,1.512-3.395,3.395-3.395h72.208C481.524,146.022,483.037,147.551,483.037,149.417L483.037,149.417z"/> </g></symbol><symbol id="007-transport-7" viewBox="0 0 496.246 496.246"><title>007-transport-7</title><path style="fill:#C17E52;" d="M357.037,249.06c0,2.859-2.332,5.207-5.207,5.207h-86.323c-2.875,0-5.207-2.339-5.207-5.207v-86.323 c0-2.883,2.332-5.215,5.207-5.215h86.323c2.875,0,5.207,2.332,5.207,5.215V249.06z"/><path style="fill:#B56841;" d="M357.037,162.737v86.323c0,2.859-2.332,5.207-5.207,5.207h-86.323"/><path style="fill:#A86743;" d="M260.301,162.737c0-2.883,2.332-5.215,5.207-5.215h86.323c2.875,0,5.207,2.332,5.207,5.215v86.323 c0,2.859-2.332,5.207-5.207,5.207"/><path style="fill:#C17E52;" d="M464.605,249.06c0,2.859-2.332,5.207-5.207,5.207h-86.323c-2.891,0-5.207-2.339-5.207-5.207v-86.323 c0-2.883,2.316-5.215,5.207-5.215h86.323c2.875,0,5.207,2.332,5.207,5.215L464.605,249.06L464.605,249.06z"/><path style="fill:#B56841;" d="M464.605,162.737v86.323c0,2.859-2.332,5.207-5.207,5.207h-86.323"/><path style="fill:#A86743;" d="M367.868,162.737c0-2.883,2.316-5.215,5.207-5.215h86.323c2.875,0,5.207,2.332,5.207,5.215v86.323 c0,2.859-2.332,5.207-5.207,5.207"/><path style="fill:#C17E52;" d="M410.829,142.643c0,2.859-2.347,5.215-5.215,5.215h-86.315c-2.891,0-5.222-2.347-5.222-5.215V56.328 c0-2.891,2.332-5.222,5.222-5.222h86.315c2.867,0,5.215,2.332,5.215,5.222V142.643z"/><path style="fill:#B56841;" d="M410.829,56.328v86.315c0,2.859-2.347,5.215-5.215,5.215h-86.315"/><path style="fill:#A86743;" d="M314.077,56.328c0-2.891,2.332-5.222,5.222-5.222h86.315c2.867,0,5.215,2.332,5.215,5.222v86.315 c0,2.859-2.347,5.215-5.215,5.215"/><path style="fill:#FFC41F;" d="M471.135,222.688H250.785v-90.23c0-15.328-12.446-27.758-27.758-27.758H93.475 c-15.328,0-27.758,12.43-27.758,27.758L4.419,338.353c0,15.328,12.422,27.758,27.758,27.758h140.761h50.081h248.115 c6.845,0,12.383-5.545,12.383-12.383V235.055C483.525,228.218,477.987,222.688,471.135,222.688z"/><path style="fill:#FFB000;" d="M18.188,292.084L4.419,338.353c0,15.328,12.422,27.758,27.758,27.758h140.761h50.081h248.115 c6.845,0,12.383-5.545,12.383-12.383v-61.645H18.188z"/><g> <path style="fill:#528099;" d="M250.785,222.688v-90.23c0-0.268-0.071-0.504-0.071-0.764h-27.695 c-15.328,0-20.047,12.422-20.047,27.758v35.47c0,15.328,12.438,27.758,27.758,27.758h20.055V222.688z"/> <path style="fill:#528099;" d="M153.624,131.694H65.788c0,0.26-0.071,0.496-0.071,0.764L38.991,222.24 c1.434,0.228,2.867,0.449,4.372,0.449h110.261c15.321,0,27.758-12.43,27.758-27.758v-35.47 C181.382,144.116,168.944,131.694,153.624,131.694z"/> </g><ellipse style="fill:#C1E5F4;" cx="47.577" cy="299.402" rx="7.326" ry="25.821"/><path style="fill:#D9F5FF;" d="M47.584,325.246c-4.033,0-7.318-11.563-7.318-25.821c0-14.273,3.285-25.836,7.318-25.836"/><g> <path style="fill:#1D5777;" d="M108.197,222.688l71.712-71.719c-2.576-7.964-8.562-14.344-16.321-17.337l-89.049,89.056H108.197z"/> <path style="fill:#1D5777;" d="M125.424,222.688h28.199c15.321,0,27.758-12.43,27.758-27.758v-28.199L125.424,222.688z"/> <path style="fill:#1D5777;" d="M93.538,131.694h-27.75c0,0.26-0.071,0.496-0.071,0.764l-11.485,38.518L93.538,131.694z"/> <path style="fill:#1D5777;" d="M250.785,132.458c0-0.268-0.071-0.504-0.071-0.764h-4.23l-43.504,43.512v19.716 c0,11.075,6.546,20.567,15.919,25.017l31.886-31.878L250.785,132.458L250.785,132.458z"/> <path style="fill:#1D5777;" d="M496.246,377.171c0,5.719-4.632,10.342-10.342,10.342H10.335C4.608,387.513,0,382.889,0,377.171 v-35.604c0-5.719,4.608-10.342,10.335-10.342h475.561c5.719,0,10.342,4.624,10.342,10.342v35.604H496.246z"/> </g><path style="fill:#1E759B;" d="M485.904,331.225H10.335C4.608,331.225,0,335.848,0,341.567v7.845 c0,5.719,4.608,10.342,10.335,10.342h475.561c5.719,0,10.342-4.624,10.342-10.342v-7.845 C496.246,335.848,491.615,331.225,485.904,331.225z"/><circle style="fill:#FFC41F;" cx="100.565" cy="393.815" r="34.903"/><path style="fill:#FFA522;" d="M100.557,358.888c19.275,0,34.911,15.636,34.911,34.926c0,19.267-15.628,34.895-34.911,34.895"/><path style="fill:#1A3D5B;" d="M100.557,445.141c-28.302,0-51.326-23.032-51.326-51.326c0-28.318,23.024-51.342,51.326-51.342 c28.31,0,51.334,23.016,51.334,51.342C151.883,422.101,128.859,445.141,100.557,445.141z M100.557,375.327 c-10.185,0-18.464,8.294-18.464,18.487c0,10.177,8.279,18.471,18.464,18.471c10.193,0,18.495-8.294,18.495-18.471 C119.044,383.622,110.75,375.327,100.557,375.327z"/><circle style="fill:#FFC41F;" cx="402.038" cy="393.807" r="34.903"/><path style="fill:#FFA522;" d="M377.328,369.12c13.635-13.619,35.745-13.619,49.365,0c13.635,13.627,13.619,35.738,0,49.365"/><path style="fill:#1A3D5B;" d="M438.319,430.104c-20.023,20.023-52.586,20.023-72.602,0c-20.023-20.023-20.023-52.563,0-72.586 c20.015-20.031,52.578-20.031,72.602,0C458.327,377.533,458.327,410.088,438.319,430.104z M388.962,380.731 c-7.223,7.207-7.223,18.928,0,26.136c7.2,7.207,18.92,7.207,26.12,0c7.207-7.207,7.207-18.928,0-26.136 C407.883,373.532,396.162,373.532,388.962,380.731z"/></symbol><symbol id="008-transport-6" viewBox="0 0 512.002 512.002"><title>008-transport-6</title><g> <path style="fill:#E0E0E0;" d="M237.714,292.572c-5.047,0-9.143-4.087-9.143-9.143v-192c0-5.056,4.096-9.143,9.143-9.143 s9.143,4.087,9.143,9.143v192C246.857,288.485,242.761,292.572,237.714,292.572"/> <path style="fill:#E0E0E0;" d="M45.714,292.572c-5.047,0-9.143-4.087-9.143-9.143v-192c0-5.056,4.096-9.143,9.143-9.143 s9.143,4.087,9.143,9.143v192C54.857,288.485,50.761,292.572,45.714,292.572"/> </g><g> <path style="fill:#383838;" d="M274.286,137.144H9.143c-5.047,0-9.143-4.087-9.143-9.143s4.096-9.143,9.143-9.143h265.143 c5.047,0,9.143,4.087,9.143,9.143S279.333,137.144,274.286,137.144"/> <path style="fill:#383838;" d="M274.286,173.715H9.143c-5.047,0-9.143-4.087-9.143-9.143s4.096-9.143,9.143-9.143h265.143 c5.047,0,9.143,4.087,9.143,9.143S279.333,173.715,274.286,173.715"/> <path style="fill:#383838;" d="M274.286,210.287H9.143C4.096,210.287,0,206.2,0,201.144c0-5.056,4.096-9.143,9.143-9.143h265.143 c5.047,0,9.143,4.087,9.143,9.143C283.429,206.2,279.333,210.287,274.286,210.287"/> <path style="fill:#383838;" d="M274.286,246.858H9.143c-5.047,0-9.143-4.087-9.143-9.143c0-5.056,4.096-9.143,9.143-9.143h265.143 c5.047,0,9.143,4.087,9.143,9.143C283.429,242.771,279.333,246.858,274.286,246.858"/> </g><path style="fill:#378CD5;" d="M506.413,213.283l-79.451-87.397c-4.069-4.471-9.838-7.031-15.89-7.031h-84.215 c-8.832,0-16,7.168-16,16v148.571H9.142V361.9c0,7.159,5.797,12.955,12.955,12.955h14.473c0-30.29,24.558-54.857,54.857-54.857 s54.857,24.567,54.857,54.857h164.571h45.714c0-30.29,24.558-54.857,54.857-54.857c30.299,0,54.857,24.567,54.857,54.857h32.759 c7.159,0,12.955-5.797,12.955-12.955V227.738C511.999,222.389,510.006,217.242,506.413,213.283"/><path style="fill:#E0E0E0;" d="M426.964,125.891c-4.069-4.48-9.847-7.031-15.899-7.031h-47.918c-3.63,0-6.574,2.944-6.574,6.574 V222c0,3.63,2.944,6.574,6.574,6.574h148.855v-0.841c0-5.339-1.993-10.496-5.586-14.446L426.964,125.891z"/><g> <path style="fill:#494949;" d="M466.286,374.858c0,30.299-24.558,54.857-54.857,54.857c-30.299,0-54.857-24.558-54.857-54.857 c0-30.299,24.558-54.857,54.857-54.857C441.728,320.001,466.286,344.559,466.286,374.858"/> <path style="fill:#494949;" d="M146.286,374.858c0,30.299-24.558,54.857-54.857,54.857s-54.857-24.558-54.857-54.857 c0-30.299,24.558-54.857,54.857-54.857S146.286,344.559,146.286,374.858"/> </g><g> <path style="fill:#A2A2A2;" d="M109.714,374.858c0,10.103-8.183,18.286-18.286,18.286s-18.286-8.183-18.286-18.286 s8.183-18.286,18.286-18.286S109.714,364.755,109.714,374.858"/> <path style="fill:#A2A2A2;" d="M429.714,374.858c0,10.103-8.183,18.286-18.286,18.286s-18.286-8.183-18.286-18.286 s8.183-18.286,18.286-18.286S429.714,364.755,429.714,374.858"/> </g><path style="fill:#83BEEB;" d="M512,265.144h-54.857c-5.047,0-9.143,4.087-9.143,9.143c0,5.056,4.096,9.143,9.143,9.143H512 V265.144z"/></symbol><symbol id="009-transport-5" viewBox="0 0 512.003 512.003"><title>009-transport-5</title><g> <path style="fill:#494949;" d="M465.455,358.403c0,30.85-25.004,55.855-55.855,55.855s-55.855-25.004-55.855-55.855 s25.004-55.855,55.855-55.855S465.455,327.552,465.455,358.403"/> <path style="fill:#494949;" d="M139.637,358.403c0,30.85-25.004,55.855-55.855,55.855s-55.855-25.004-55.855-55.855 s25.004-55.855,55.855-55.855S139.637,327.552,139.637,358.403"/> </g><path style="fill:#378CD5;" d="M506.312,193.89l-80.896-88.986c-4.143-4.552-10.017-7.159-16.179-7.159h-85.746 c-8.993,0-16.291,7.298-16.291,16.291v151.273H0v79.9c0,7.289,5.902,13.191,13.191,13.191h14.736 c0-30.841,25.004-55.855,55.855-55.855s55.855,25.014,55.855,55.855H307.2h46.545c0-30.841,25.004-55.855,55.855-55.855 s55.855,25.014,55.855,55.855h33.354c7.289,0,13.191-5.902,13.191-13.191V208.607C512,203.162,509.971,197.921,506.312,193.89"/><g> <path style="fill:#E0E0E0;" d="M102.401,358.403c0,10.287-8.332,18.618-18.618,18.618s-18.618-8.332-18.618-18.618 s8.332-18.618,18.618-18.618S102.401,348.116,102.401,358.403"/> <path style="fill:#E0E0E0;" d="M428.219,358.403c0,10.287-8.332,18.618-18.618,18.618s-18.618-8.332-18.618-18.618 s8.332-18.618,18.618-18.618S428.219,348.116,428.219,358.403"/> <path style="fill:#E0E0E0;" d="M425.419,104.909c-4.143-4.561-10.026-7.159-16.188-7.159h-48.789 c-3.696,0-6.693,2.998-6.693,6.693v98.323c0,3.696,2.998,6.693,6.693,6.693h151.561v-0.856c0-5.437-2.029-10.687-5.688-14.708 L425.419,104.909z"/> </g><path style="fill:#75B93F;" d="M307.201,265.312H0.001v-70.684c0-7.233,5.865-13.098,13.098-13.098h294.102V265.312z"/><path style="fill:#83BEEB;" d="M512.001,246.694h-55.855c-5.148,0-9.309,4.161-9.309,9.309s4.161,9.309,9.309,9.309h55.855V246.694 z"/></symbol><symbol id="010-transport-4" viewBox="0 0 506.389 506.389"><title>010-transport-4</title><g> <path style="fill:#797979;" d="M158.696,374.686c0-23.96-19.43-43.39-43.39-43.39s-43.39,19.43-43.39,43.39 s19.43,43.39,43.39,43.39S158.696,398.646,158.696,374.686"/> <path style="fill:#797979;" d="M454.318,374.686c0-23.96-19.43-43.39-43.39-43.39c-23.96,0-43.39,19.43-43.39,43.39 s19.43,43.39,43.39,43.39C434.888,418.076,454.318,398.646,454.318,374.686"/> </g><path style="fill:#EE8472;" d="M500.93,285.724l-37.931-15.178l-22.754-90.988c-1.927-7.723-8.869-13.147-16.835-13.147h-58.168 c-16.61,46.089-45.516,95.458-93.141,95.458h-34.729h-26.034H40.998L19.85,374.682h52.068c0-23.96,19.421-43.39,43.39-43.39 c23.96,0,43.39,19.43,43.39,43.39H332.83h34.712c0-23.96,19.421-43.39,43.39-43.39c23.96,0,43.39,19.43,43.39,43.39h43.39 c4.79,0,8.678-3.879,8.678-8.678v-72.227C506.389,290.236,504.228,287.043,500.93,285.724"/><g> <path style="fill:#C0C0C0;" d="M115.306,392.042c-9.58,0-17.356-7.775-17.356-17.356s7.775-17.356,17.356-17.356 s17.356,7.775,17.356,17.356S124.886,392.042,115.306,392.042"/> <path style="fill:#C0C0C0;" d="M410.928,392.042c-9.58,0-17.356-7.775-17.356-17.356s7.775-17.356,17.356-17.356 s17.356,7.775,17.356,17.356S420.508,392.042,410.928,392.042"/> </g><path style="fill:#DB776A;" d="M384.894,313.94h-17.356c-4.79,0-8.678-3.888-8.678-8.678c0-4.79,3.888-8.678,8.678-8.678h17.356 c4.79,0,8.678,3.888,8.678,8.678C393.572,310.052,389.684,313.94,384.894,313.94"/><path style="fill:#FFD479;" d="M272.105,261.872H41.002L71.913,88.313h312.98C384.892,88.313,361.392,261.872,272.105,261.872"/><g> <path style="fill:#4FBA6F;" d="M169.869,131.703H27.229c-4.799,0-8.678-3.888-8.678-8.678s3.879-8.678,8.678-8.678h142.64 c4.79,0,8.678,3.888,8.678,8.678S174.659,131.703,169.869,131.703"/> <path style="fill:#4FBA6F;" d="M163.686,166.415H21.047c-4.799,0-8.678-3.888-8.678-8.678s3.879-8.678,8.678-8.678h142.64 c4.79,0,8.678,3.888,8.678,8.678S168.477,166.415,163.686,166.415"/> <path style="fill:#4FBA6F;" d="M157.504,201.127H14.864c-4.799,0-8.678-3.888-8.678-8.678s3.879-8.678,8.678-8.678h142.64 c4.79,0,8.678,3.888,8.678,8.678S162.294,201.127,157.504,201.127"/> <path style="fill:#4FBA6F;" d="M151.318,235.838H8.678c-4.799,0-8.678-3.888-8.678-8.678s3.879-8.678,8.678-8.678h142.64 c4.79,0,8.678,3.888,8.678,8.678S156.108,235.838,151.318,235.838"/> </g><path style="fill:#DB776A;" d="M402.25,250.851v-41.047c0-4.79-3.888-8.678-8.678-8.678c-4.79,0-8.678,3.888-8.678,8.678v41.047 c0,15.646,12.731,28.377,28.377,28.377h71.42l-21.695-8.678l-2.169-8.678h-47.555C407.196,261.872,402.25,256.926,402.25,250.851"/></symbol><symbol id="011-transport-3" viewBox="0 0 512 512"><title>011-transport-3</title><rect x="22.261" y="289.391" style="fill:#58575D;" width="467.478" height="55.652"/><rect x="211.478" y="111.304" style="fill:#EDEDED;" width="300.522" height="166.957"/><rect x="445.217" y="111.304" style="fill:#D8D8DA;" width="66.783" height="166.957"/><polygon style="fill:#D1E5F5;" points="55.652,111.305 133.566,111.305 133.566,289.391 55.652,289.391 11.13,345.043 0,345.043 0.001,166.956 "/><polygon style="fill:#B4D8F1;" points="89.043,111.304 0.001,200.348 0,345.043 11.13,345.043 55.652,289.391 122.435,289.391 133.566,111.304 "/><circle style="fill:#88888F;" cx="417.391" cy="350.609" r="50.087"/><path style="fill:#797781;" d="M417.391,300.522c-5.856,0-11.472,1.015-16.696,2.862c19.452,6.876,33.391,25.419,33.391,47.225 c0,21.807-13.94,40.349-33.391,47.225c5.223,1.847,10.84,2.862,16.696,2.862c27.662,0,50.087-22.424,50.087-50.087 C467.478,322.946,445.055,300.522,417.391,300.522z"/><path style="fill:#EDEDED;" d="M417.391,364.522c-7.672,0-13.913-6.241-13.913-13.913s6.241-13.913,13.913-13.913 s13.913,6.241,13.913,13.913S425.064,364.522,417.391,364.522z"/><circle style="fill:#88888F;" cx="317.217" cy="350.609" r="50.087"/><path style="fill:#797781;" d="M317.217,300.522c-5.856,0-11.472,1.015-16.696,2.862c19.452,6.876,33.391,25.419,33.391,47.225 c0,21.807-13.94,40.349-33.391,47.225c5.224,1.847,10.84,2.862,16.696,2.862c27.662,0,50.087-22.424,50.087-50.087 C367.304,322.946,344.881,300.522,317.217,300.522z"/><path style="fill:#EDEDED;" d="M317.217,364.522c-7.672,0-13.913-6.241-13.913-13.913s6.241-13.913,13.913-13.913 s13.913,6.241,13.913,13.913S324.89,364.522,317.217,364.522z"/><circle style="fill:#88888F;" cx="83.478" cy="350.609" r="50.087"/><path style="fill:#797781;" d="M83.478,300.522c-5.856,0-11.472,1.015-16.696,2.862c19.452,6.876,33.391,25.419,33.391,47.225 c0,21.807-13.94,40.349-33.391,47.225c5.224,1.847,10.84,2.862,16.696,2.862c27.662,0,50.087-22.424,50.087-50.087 C133.565,322.946,111.142,300.522,83.478,300.522z"/><path style="fill:#EDEDED;" d="M83.478,364.522c-7.672,0-13.913-6.241-13.913-13.913s6.241-13.913,13.913-13.913 s13.913,6.241,13.913,13.913S91.15,364.522,83.478,364.522z"/><rect x="166.957" y="267.13" style="fill:#797781;" width="55.652" height="33.391"/><rect x="122.435" y="233.739" style="fill:#88888F;" width="55.652" height="66.783"/><polygon style="fill:#E07188;" points="89.043,111.304 89.043,200.348 0.001,200.348 0,345.043 22.261,345.043 55.652,300.522 133.566,300.522 133.566,111.304 "/><g> <polygon style="fill:#DC4161;" points="0,330.203 0,345.043 22.261,345.043 55.652,300.522 22.261,300.522 "/> <rect x="100.174" y="111.304" style="fill:#DC4161;" width="33.391" height="189.217"/> <path style="fill:#DC4161;" d="M77.913,242.087H44.522c-4.61,0-8.348-3.736-8.348-8.348s3.738-8.348,8.348-8.348h33.391 c4.61,0,8.348,3.736,8.348,8.348S82.524,242.087,77.913,242.087z"/> </g><polygon style="fill:#88888F;" points="244.87,345.043 289.391,300.522 445.217,300.522 489.739,345.043 512,345.043 512,267.13 211.478,267.13 211.478,345.043 "/><polygon style="fill:#797781;" points="445.217,267.13 445.217,300.522 489.739,345.043 512,345.043 512,267.13 "/></symbol><symbol id="012-transport-2" viewBox="0 0 460 460"><title>012-transport-2</title><polygon id="XMLID_836_" style="fill:#DAE0E7;" points="135,49.5 145,139.5 135,239.5 0,229.5 0,49.5 "/><polygon id="XMLID_837_" style="fill:#BEC8D6;" points="270,49.5 270,79.5 280,239.5 135,239.5 135,49.5 "/><polygon id="XMLID_838_" style="fill:#6B81A1;" points="0,229.5 0,319.5 280,329.5 280,229.5 "/><polygon id="XMLID_839_" style="fill:#FFB739;" points="300.001,110.495 300.001,210.5 430,200.5 400.907,120.495 "/><polygon id="XMLID_840_" style="fill:#466289;" points="310,200.5 310,120.5 400.909,120.5 386,79.5 270,79.5 270,319.5 0,319.5 0,349.5 460,349.5 460,200.5 "/><path id="XMLID_841_" style="fill:#233145;" d="M380,350.5l-10-60c-33.137,0-60,26.863-60,60c0,33.136,26.863,60,60,60L380,350.5z"/><path id="XMLID_842_" style="fill:#121923;" d="M370,290.5v120c33.137,0,60-26.863,60-60S403.137,290.5,370,290.5z"/><circle id="XMLID_843_" style="fill:#6B81A1;" cx="370" cy="350.5" r="20"/><path id="XMLID_844_" style="fill:#354A67;" d="M89.999,290.5c-33.136,0-60,26.864-59.999,60c0,33.136,26.863,60,60,60l10-60 L89.999,290.5z"/><path id="XMLID_845_" style="fill:#233145;" d="M90,290.5v120c33.137,0,60-26.863,60-60C149.999,317.363,123.136,290.5,90,290.5z"/><circle id="XMLID_846_" style="fill:#8799B3;" cx="90" cy="350.5" r="20"/></symbol><symbol id="013-transport-1" viewBox="0 0 512 512"><title>013-transport-1</title><path style="fill:#FFDB2D;" d="M449.888,248.374H322.451c-9.024,0-16.34-7.316-16.34-16.34v-82.791c0-9.024,7.316-16.34,16.34-16.34 h101.95c7.172,0,13.507,4.678,15.617,11.533l25.487,82.791C468.738,237.725,460.874,248.374,449.888,248.374z"/><path style="fill:#FF9900;" d="M466.05,227.227l-25.487-82.791c-2.11-6.855-8.444-11.533-15.617-11.533H409.6v115.472h40.833 C461.419,248.374,469.283,237.726,466.05,227.227z"/><path style="fill:#B9F7F9;" d="M495.66,381.277h-48.477c-9.024,0-16.34-7.316-16.34-16.34c0-28.793-43.574-28.793-43.574,0 c0,9.024-7.316,16.34-16.34,16.34h-48.477c-9.024,0-16.34-7.316-16.34-16.34V232.034c0-9.024,7.316-16.34,16.34-16.34H495.66 c9.024,0,16.34,7.316,16.34,16.34v132.902C512,373.96,504.684,381.277,495.66,381.277z"/><path style="fill:#00D8E0;" d="M495.66,215.694H409.6v127.66c10.71,0.235,21.243,7.426,21.243,21.584 c0,9.024,7.316,16.34,16.34,16.34h48.477c9.024,0,16.34-7.316,16.34-16.34V232.034C512,223.01,504.684,215.694,495.66,215.694z"/><path style="fill:#B9F7F9;" d="M322.451,317.004H16.34c-9.024,0-16.34-7.316-16.34-16.34V108.936c0-9.024,7.316-16.34,16.34-16.34 h306.111c9.024,0,16.34,7.316,16.34,16.34v191.728C338.791,309.688,331.475,317.004,322.451,317.004z"/><g> <path style="fill:#00D8E0;" d="M322.451,92.596H153.6v224.409h168.851c9.024,0,16.34-7.316,16.34-16.34V108.936 C338.791,99.912,331.475,92.596,322.451,92.596z"/> <path style="fill:#00D8E0;" d="M338.791,381.277H191.81c-8.988,0-16.59-7.182-16.521-16.17c0.222-28.992-43.796-29.046-43.573,0 c0.069,8.988-7.533,16.17-16.521,16.17H16.34c-9.024,0-16.34-7.316-16.34-16.34v-80.613h338.791V381.277z"/> </g><path style="fill:#00A2A9;" d="M153.6,284.323v59.018c10.838,0.007,21.676,7.13,21.775,21.349 c0.063,9.122,7.231,16.584,16.353,16.584h147.063v-96.953H153.6V284.323z"/><g> <path style="fill:#A7A9AC;" d="M409.6,419.404c-30.034,0-54.468-24.434-54.468-54.468s24.434-54.468,54.468-54.468 c30.034,0,54.468,24.434,54.468,54.468S439.634,419.404,409.6,419.404z"/> <path style="fill:#A7A9AC;" d="M153.502,419.404c-30.034,0-54.468-24.434-54.468-54.468s24.434-54.468,54.468-54.468 s54.468,24.434,54.468,54.468S183.536,419.404,153.502,419.404z"/> </g><g> <path style="fill:#808285;" d="M409.6,310.468v108.936c30.034,0,54.468-24.434,54.468-54.468S439.634,310.468,409.6,310.468z"/> <path style="fill:#808285;" d="M153.6,310.468v108.936c30.034,0,54.468-24.434,54.468-54.468S183.634,310.468,153.6,310.468z"/> </g></symbol><symbol id="014-transport" viewBox="0 0 512.001 512.001"><title>014-transport</title><path style="fill:#85C14E;" d="M447.202,221.348l-58.492-73.11c-5.764-7.212-14.495-11.405-23.729-11.405H264.824v256h97.103 c0-29.255,23.72-52.966,52.966-52.966c29.255,0,52.966,23.711,52.966,52.966h24.276c10.973,0,19.862-8.898,19.862-19.871V244.97 c0-10.973-8.889-19.862-19.862-19.862h-37.12C451.978,225.108,449.1,223.722,447.202,221.348"/><path style="fill:#6AA62C;" d="M0.001,286.897v88.285c0,9.746,7.901,17.646,17.646,17.646h26.492 c0-29.255,23.711-52.966,52.966-52.966s52.966,23.711,52.966,52.966h114.759V286.897H0.001z"/><path style="fill:#FFCC5C;" d="M264.828,286.897H0V91.578c0-14.009,11.361-25.37,25.37-25.37h214.087 c14.009,0,25.37,11.361,25.37,25.37V286.897z"/><g> <path style="fill:#5B5B5B;" d="M467.863,392.828c0,29.255-23.711,52.966-52.966,52.966s-52.966-23.711-52.966-52.966 c0-29.255,23.711-52.966,52.966-52.966S467.863,363.573,467.863,392.828"/> <path style="fill:#5B5B5B;" d="M150.07,392.828c0,29.255-23.711,52.966-52.966,52.966s-52.966-23.711-52.966-52.966 c0-29.255,23.711-52.966,52.966-52.966S150.07,363.573,150.07,392.828"/> </g><g> <path style="fill:#B2B2B2;" d="M114.76,392.828c0,9.754-7.901,17.655-17.655,17.655s-17.655-7.901-17.655-17.655 c0-9.754,7.901-17.655,17.655-17.655S114.76,383.074,114.76,392.828"/> <path style="fill:#B2B2B2;" d="M432.553,392.828c0,9.754-7.901,17.655-17.655,17.655s-17.655-7.901-17.655-17.655 c0-9.754,7.901-17.655,17.655-17.655S432.553,383.074,432.553,392.828"/> </g><path style="fill:#E6E6E6;" d="M388.713,148.235c-5.764-7.212-14.504-11.405-23.737-11.405h-47.183v47.078 c0,8.13,6.585,14.716,14.716,14.716h96.512L388.713,148.235z"/><g> <path style="fill:#DBA436;" d="M0.001,172.138h97.103c4.882,0,8.828-3.946,8.828-8.828c0-4.882-3.946-8.828-8.828-8.828H0.001 V172.138z"/> <path style="fill:#DBA436;" d="M0.001,216.276h132.414c4.882,0,8.828-3.946,8.828-8.828c0-4.882-3.946-8.828-8.828-8.828H0.001 V216.276z"/> </g><path style="fill:#6AA62C;" d="M512.001,295.725v-17.655l0,0H361.932c-4.882,0-8.828,3.946-8.828,8.828 c0,4.882,3.946,8.828,8.828,8.828H512.001L512.001,295.725z"/></symbol><symbol id="015-delivery-truck-1" viewBox="0 0 512 512"><title>015-delivery-truck-1</title><path style="fill:#8D8A94;" d="M199.057,335.448H26.483c-4.875,0-8.828-3.953-8.828-8.828v-17.655h264.828l-58.631,21.986 C215.924,333.926,207.524,335.448,199.057,335.448z"/><path style="fill:#A7A5AC;" d="M353.103,317.793H17.655c-4.875,0-8.828-3.953-8.828-8.828v-26.483h344.276V317.793z"/><path style="fill:#64BEF0;" d="M432.552,247.172l-15.435-56.244c-1.341-3.351-4.587-5.549-8.196-5.549h-55.817 c-4.875,0-8.828,3.953-8.828,8.828v114.759h150.069v-45.31c0-4.393-3.23-8.118-7.58-8.739L432.552,247.172z"/><g> <polygon style="fill:#00AADC;" points="420.438,203.034 344.276,203.034 344.276,247.172 432.552,247.172 "/> <path style="fill:#00AADC;" d="M406.069,335.448h97.103v-35.31c0-9.751-7.904-17.655-17.655-17.655h-61.793 c-9.751,0-17.655,7.904-17.655,17.655V335.448z"/> </g><path style="fill:#736F7B;" d="M507.586,335.448H406.069v-17.655h101.517c2.438,0,4.414,1.976,4.414,4.414v8.828 C512,333.472,510.024,335.448,507.586,335.448z"/><circle style="fill:#504B5A;" cx="463.448" cy="331.034" r="30.897"/><circle style="fill:#DCDBDE;" cx="463.448" cy="331.034" r="17.655"/><path style="fill:#B9B7BD;" d="M353.103,335.448h52.966c4.875,0,8.828-3.953,8.828-8.828v-8.828c0-4.875-3.953-8.828-8.828-8.828 h-52.966c-4.875,0-8.828,3.953-8.828,8.828v8.828C344.276,331.496,348.228,335.448,353.103,335.448z"/><circle style="fill:#504B5A;" cx="75.034" cy="331.034" r="30.897"/><circle style="fill:#DCDBDE;" cx="75.034" cy="331.034" r="17.655"/><circle style="fill:#504B5A;" cx="145.655" cy="331.034" r="30.897"/><circle style="fill:#DCDBDE;" cx="145.655" cy="331.034" r="17.655"/><path style="fill:#B9B7BD;" d="M339.862,291.31h-8.828c-2.438,0-4.414-1.976-4.414-4.414v-79.448c0-2.438,1.976-4.414,4.414-4.414 h8.828c2.438,0,4.414,1.976,4.414,4.414v79.448C344.276,289.334,342.3,291.31,339.862,291.31z"/><path style="fill:#736F7B;" d="M344.276,150.069h-26.483c-4.879,0-8.828,3.953-8.828,8.828v17.655H17.655 c-4.875,0-8.828,3.953-8.828,8.828v88.276c-4.875,0-8.828,3.953-8.828,8.828s3.953,8.828,8.828,8.828h308.966 c4.875,0,8.828-3.953,8.828-8.828V167.724h17.655c4.879,0,8.828-3.953,8.828-8.828C353.103,154.022,349.155,150.069,344.276,150.069 z"/><g> <path style="fill:#625D6B;" d="M422.046,247.172h10.506l-12.114-44.138h-6.613c-4.013,0-7.023,3.671-6.236,7.606l5.905,29.522 C414.31,244.238,417.889,247.172,422.046,247.172z"/> <path style="fill:#625D6B;" d="M399.657,247.172h-33.312c-2.438,0-4.414-1.976-4.414-4.414v-35.31c0-2.438,1.976-4.414,4.414-4.414 h25.69c3.028,0,5.634,2.137,6.228,5.106l6.549,32.745C405.462,244.138,402.974,247.172,399.657,247.172z"/> <path style="fill:#625D6B;" d="M304.552,273.655H30.897c-2.438,0-4.414-1.976-4.414-4.414v-70.621c0-2.438,1.976-4.414,4.414-4.414 h273.655c2.438,0,4.414,1.976,4.414,4.414v70.621C308.966,271.679,306.989,273.655,304.552,273.655z"/> </g><g> <path style="fill:#736F7B;" d="M66.207,264.828h-8.828c-2.438,0-4.414-1.976-4.414-4.414v-52.966c0-2.438,1.976-4.414,4.414-4.414 h8.828c2.438,0,4.414,1.976,4.414,4.414v52.966C70.621,262.851,68.644,264.828,66.207,264.828z"/> <path style="fill:#736F7B;" d="M119.172,264.828h-8.828c-2.438,0-4.414-1.976-4.414-4.414v-52.966c0-2.438,1.976-4.414,4.414-4.414 h8.828c2.438,0,4.414,1.976,4.414,4.414v52.966C123.586,262.851,121.61,264.828,119.172,264.828z"/> <path style="fill:#736F7B;" d="M172.138,264.828h-8.828c-2.438,0-4.414-1.976-4.414-4.414v-52.966c0-2.438,1.976-4.414,4.414-4.414 h8.828c2.438,0,4.414,1.976,4.414,4.414v52.966C176.552,262.851,174.575,264.828,172.138,264.828z"/> <path style="fill:#736F7B;" d="M225.103,264.828h-8.828c-2.438,0-4.414-1.976-4.414-4.414v-52.966c0-2.438,1.976-4.414,4.414-4.414 h8.828c2.438,0,4.414,1.976,4.414,4.414v52.966C229.517,262.851,227.541,264.828,225.103,264.828z"/> <path style="fill:#736F7B;" d="M278.069,264.828h-8.828c-2.438,0-4.414-1.976-4.414-4.414v-52.966c0-2.438,1.976-4.414,4.414-4.414 h8.828c2.438,0,4.414,1.976,4.414,4.414v52.966C282.483,262.851,280.506,264.828,278.069,264.828z"/> </g><path style="fill:#DCDBDE;" d="M194.207,286.897c-1.224,0-2.449-0.509-3.319-1.508c-1.612-1.832-1.422-4.621,0.414-6.229 l141.241-123.586c1.827-1.603,4.621-1.427,6.225,0.418c1.612,1.832,1.422,4.621-0.414,6.229L197.112,285.806 C196.276,286.539,195.242,286.897,194.207,286.897z"/></symbol><symbol id="016-truck-1" viewBox="0 0 469.72 469.72"><title>016-truck-1</title><polygon style="fill:#76CDCE;" points="448.865,251.797 308.198,251.797 308.198,146.463 416.865,146.463 "/><path style="fill:#CCCCCC;" d="M469.72,332.205L469.72,332.205c0,5.945-4.82,10.765-10.765,10.765h-23.04 c0.05-0.92,0.08-1.85,0.08-2.78c0-6.5-1.18-12.79-3.51-18.75h26.47C464.9,321.44,469.72,326.26,469.72,332.205z"/><path style="fill:#999999;" d="M409.435,135.71h-117.43v207.26h40.56c-0.05-0.92-0.08-1.85-0.08-2.78 c0-28.54,23.21-51.75,51.75-51.75c19.94,0,37.77,11.13,46.52,29.05c0.63,1.3,1.21,2.61,1.73,3.95h26.47v-91.602 c0-2.727-0.526-5.428-1.55-7.955l-30.006-74.069C424.435,140.498,417.329,135.71,409.435,135.71z M313.995,229.99v-72.28h93.67 l29.28,72.28H313.995z"/><path style="fill:#666666;" d="M341.575,342.97c-0.06-0.92-0.09-1.85-0.09-2.78c0-23.61,19.14-42.75,42.75-42.75 c16.89,0,31.49,9.79,38.43,24c2.77,5.66,4.33,12.03,4.33,18.75c0,0.93-0.03,1.86-0.09,2.77c-1.43,22.33-19.98,39.99-42.67,39.99 C361.555,382.95,343.005,365.29,341.575,342.97z M401.775,340.19c0-9.67-7.87-17.54-17.54-17.54s-17.54,7.87-17.54,17.54 s7.87,17.54,17.54,17.54S401.775,349.86,401.775,340.19z"/><path style="fill:#E6E6E6;" d="M384.235,322.65c9.67,0,17.54,7.87,17.54,17.54s-7.87,17.54-17.54,17.54s-17.54-7.87-17.54-17.54 C366.695,330.52,374.565,322.65,384.235,322.65z"/><path style="fill:#F4581B;" d="M291.995,86.77v256.2h-153.97c0.05-0.92,0.08-1.85,0.08-2.78c0-28.54-23.21-51.75-51.75-51.75 c-19.96,0-37.78,11.14-46.51,29.04c-0.64,1.3-1.22,2.62-1.74,3.96h-27.34V86.77H291.995z"/><path style="fill:#666666;" d="M129.105,340.19c0,0.93-0.03,1.86-0.09,2.78c-1.43,22.32-19.98,39.98-42.66,39.98 c-22.69,0-41.24-17.66-42.67-39.98c-0.06-0.92-0.09-1.85-0.09-2.78c0-6.72,1.55-13.08,4.33-18.74 c6.93-14.22,21.54-24.01,38.43-24.01C109.965,297.44,129.105,316.58,129.105,340.19z M103.895,340.19 c0-9.67-7.87-17.54-17.54-17.54s-17.54,7.87-17.54,17.54s7.87,17.54,17.54,17.54S103.895,349.86,103.895,340.19z"/><path style="fill:#E6E6E6;" d="M86.355,322.65c9.67,0,17.54,7.87,17.54,17.54s-7.87,17.54-17.54,17.54s-17.54-7.87-17.54-17.54 S76.685,322.65,86.355,322.65z"/><path style="fill:#CCCCCC;" d="M34.595,340.19c0,0.93,0.03,1.87,0.08,2.78h-23.91C4.82,342.97,0,338.15,0,332.205l0,0 c0-5.945,4.82-10.765,10.765-10.765h27.34C35.775,327.39,34.595,333.68,34.595,340.19z"/><path style="fill:#F7CF52;" d="M444.45,294.944h-7.15c-4.336,0-7.85-3.515-7.85-7.85v-18.249c0-4.336,3.515-7.85,7.85-7.85h7.15 V294.944z"/><g> <rect x="33.051" y="108.611" style="fill:#DB481B;" width="236.666" height="15"/> <g> <rect x="33.051" y="157.055" style="fill:#DB481B;" width="236.666" height="15"/> </g> <g> <rect x="33.051" y="253.944" style="fill:#DB481B;" width="236.666" height="15"/> </g> <rect x="33.051" y="205.5" style="fill:#DB481B;" width="236.666" height="15"/> </g><polygon style="fill:#96E0DE;" points="322.865,157.71 396.005,229.99 436.945,229.99 407.665,157.71 "/></symbol><symbol id="017-trucks" viewBox="0 0 512 512"><title>017-trucks</title><path style="fill:#FCD577;" d="M272.611,117.643l-40.605-16.19L96.974,76.377l-43.711,0.532 c-9.527,0.117-17.646,6.949-19.386,16.318L9.288,225.639c-1.74,9.368,3.383,18.66,12.235,22.19l40.605,16.189l135.032,25.076 l43.711-0.532c9.527-0.115,17.646-6.949,19.386-16.318l24.59-132.413C286.584,130.463,281.462,121.171,272.611,117.643z"/><g> <path style="fill:#EAC36E;" d="M265.406,241.499l-60.102,0.731L70.272,217.154L14.96,195.1l-5.671,30.539 c-1.74,9.368,3.383,18.66,12.234,22.19l40.605,16.189l135.032,25.076l43.516-0.529c9.614-0.117,17.78-7.071,19.426-16.545 L265.406,241.499z"/> <path style="fill:#EAC36E;" d="M197.17,298.014c-0.541,0-1.088-0.05-1.639-0.151c-4.842-0.899-8.04-5.555-7.141-10.397 l34.847-187.641c0.9-4.843,5.563-8.036,10.397-7.14c4.843,0.899,8.04,5.555,7.141,10.398l-34.847,187.64 C205.131,295.014,201.383,298.014,197.17,298.014z"/> <path style="fill:#EAC36E;" d="M62.138,272.938c-0.541,0-1.088-0.05-1.639-0.151c-4.843-0.899-8.04-5.555-7.141-10.397 L88.205,74.748c0.899-4.845,5.562-8.037,10.397-7.141c4.842,0.899,8.04,5.555,7.141,10.397L70.897,265.646 C70.099,269.939,66.351,272.938,62.138,272.938z"/> </g><rect x="13.152" y="304.7" style="fill:#415E72;" width="311.225" height="83.49"/><path style="fill:#FF6F52;" d="M338.974,388.191h-38.394V119.782c0-10.504,8.516-19.019,19.019-19.019h81.116 c54.203,0,98.135,43.932,98.135,98.12v189.308h-47.158"/><g> <circle style="fill:#808080;" cx="111.78" cy="388.19" r="56.354"/> <circle style="fill:#808080;" cx="395.334" cy="388.19" r="56.354"/> </g><path style="fill:#CFDCE5;" d="M456.581,242.363v-43.481c0-30.797-25.061-55.851-55.866-55.851h-57.866v99.332H456.581z"/><g> <circle style="fill:#E6E6E6;" cx="111.78" cy="388.19" r="22.504"/> <circle style="fill:#E6E6E6;" cx="395.334" cy="388.19" r="22.504"/> </g><g> <path style="fill:#314A5F;" d="M111.778,417.235c-16.015,0-29.044-13.03-29.044-29.044s13.028-29.044,29.044-29.044 s29.044,13.03,29.044,29.044S127.793,417.235,111.778,417.235z M111.778,372.228c-8.802,0-15.963,7.161-15.963,15.963 c0,8.802,7.16,15.963,15.963,15.963s15.963-7.161,15.963-15.963C127.741,379.389,120.58,372.228,111.778,372.228z"/> <path style="fill:#314A5F;" d="M395.331,417.235c-16.015,0-29.045-13.03-29.045-29.044s13.03-29.044,29.045-29.044 c16.016,0,29.044,13.03,29.044,29.044S411.347,417.235,395.331,417.235z M395.331,372.228c-8.802,0-15.964,7.161-15.964,15.963 c0,8.802,7.161,15.963,15.964,15.963c8.803,0,15.963-7.161,15.963-15.963C411.294,379.389,404.134,372.228,395.331,372.228z"/> </g><path style="fill:#FCD577;" d="M456.58,328.07c-4.927,0-8.919-3.993-8.919-8.919v-26.77c0-4.925,3.992-8.919,8.919-8.919 s8.919,3.993,8.919,8.919v26.77C465.498,324.078,461.506,328.07,456.58,328.07z"/><g> <path style="fill:#CFDCE5;" d="M503.081,371.886h-28.015c-4.927,0-8.919-3.993-8.919-8.919c0-4.925,3.992-8.919,8.919-8.919h28.015 c4.927,0,8.919,3.993,8.919,8.919C512,367.893,508.007,371.886,503.081,371.886z"/> <path style="fill:#CFDCE5;" d="M30.988,371.886H8.919c-4.927,0-8.919-3.993-8.919-8.919c0-4.925,3.992-8.919,8.919-8.919h22.069 c4.927,0,8.919,3.993,8.919,8.919C39.907,367.893,35.914,371.886,30.988,371.886z"/> </g></symbol><symbol id="018-truck" viewBox="0 0 512 512"><title>018-truck</title><path style="fill:#EE705C;" d="M506.605,197.101l-76.712-84.383c-3.928-4.317-9.498-6.788-15.342-6.788h-96.759v300.138h44.138 c0-29.246,23.711-52.966,52.966-52.966c29.255,0,52.966,23.72,52.966,52.966h44.138v-195.01 C511.999,205.893,510.075,200.914,506.605,197.101"/><path style="fill:#FAC75A;" d="M317.793,300.138H0V78.336c0-14.009,11.361-25.37,25.37-25.37h267.052 c14.009,0,25.37,11.361,25.37,25.37V300.138z"/><path style="fill:#E6E6E6;" d="M368.275,247.172h143.722V211.05c0-5.155-1.924-10.134-5.394-13.948l-50.776-55.861h-87.552 c-3.505,0-6.347,2.842-6.347,6.347v93.237C361.928,244.33,364.771,247.172,368.275,247.172"/><g> <path style="fill:#5B5B5B;" d="M467.862,406.069c0,29.255-23.711,52.966-52.966,52.966s-52.966-23.711-52.966-52.966 s23.711-52.966,52.966-52.966S467.862,376.814,467.862,406.069"/> <path style="fill:#5B5B5B;" d="M150.069,406.069c0,29.255-23.711,52.966-52.966,52.966s-52.966-23.711-52.966-52.966 s23.711-52.966,52.966-52.966S150.069,376.814,150.069,406.069"/> </g><path style="fill:#C64533;" d="M0,300.138v83.871c0,12.182,9.878,22.06,22.06,22.06h22.078c0-29.255,23.711-52.966,52.966-52.966 s52.966,23.711,52.966,52.966h167.724V300.138H0z"/><g> <path style="fill:#B2B2B2;" d="M114.759,406.069c0,9.754-7.901,17.655-17.655,17.655s-17.655-7.901-17.655-17.655 s7.901-17.655,17.655-17.655S114.759,396.314,114.759,406.069"/> <path style="fill:#B2B2B2;" d="M432.552,406.069c0,9.754-7.901,17.655-17.655,17.655s-17.655-7.901-17.655-17.655 s7.901-17.655,17.655-17.655S432.552,396.314,432.552,406.069"/> </g><path style="fill:#F4A29B;" d="M512,300.138h-52.966c-4.882,0-8.828,3.946-8.828,8.828s3.946,8.828,8.828,8.828H512V300.138z"/><g> <path style="fill:#D8AC4E;" d="M132.414,229.517c4.873,0,8.828-3.946,8.828-8.828s-3.955-8.828-8.828-8.828H0v17.655H132.414z"/> <path style="fill:#D8AC4E;" d="M97.103,185.379c4.873,0,8.828-3.946,8.828-8.828c0-4.882-3.955-8.828-8.828-8.828H0v17.655H97.103 z"/> </g></symbol><symbol id="019-delivery-truck" viewBox="0 0 512 512"><title>019-delivery-truck</title><path style="fill:#625D6B;" d="M414.897,295.724h-88.276v26.483H35.31c-4.875,0-8.828,3.953-8.828,8.828v17.655 c0,4.875,3.953,8.828,8.828,8.828h379.586V295.724z"/><path style="fill:#DCDBDE;" d="M335.448,110.345H8.828c-4.875,0-8.828,3.953-8.828,8.828v194.207c0,4.875,3.953,8.828,8.828,8.828 h326.621c4.875,0,8.828-3.953,8.828-8.828V119.172C344.276,114.297,340.323,110.345,335.448,110.345z"/><g> <path style="fill:#CAC9CD;" d="M317.793,304.552H26.483c-4.875,0-8.828-3.953-8.828-8.828l0,0c0-4.875,3.953-8.828,8.828-8.828 h291.31c4.875,0,8.828,3.953,8.828,8.828l0,0C326.621,300.599,322.668,304.552,317.793,304.552z"/> <path style="fill:#CAC9CD;" d="M317.793,145.655H26.483c-4.875,0-8.828-3.953-8.828-8.828l0,0c0-4.875,3.953-8.828,8.828-8.828 h291.31c4.875,0,8.828,3.953,8.828,8.828l0,0C326.621,141.703,322.668,145.655,317.793,145.655z"/> </g><path style="fill:#64BEF0;" d="M446.909,154.483h-76.15c-4.875,0-8.828,3.953-8.828,8.828v132.414c0,4.875,3.953,8.828,8.828,8.828 h39.724v44.138h92.69v-63.058c0-10.835-1.995-21.577-5.884-31.689L463.388,165.8C460.765,158.982,454.215,154.483,446.909,154.483z"/><rect x="410.483" y="304.552" style="fill:#00AADC;" width="92.69" height="44.138"/><circle style="fill:#EDEDEE;" cx="101.517" cy="353.103" r="40.46"/><path style="fill:#504B5A;" d="M101.517,401.655c-26.773,0-48.552-21.779-48.552-48.552c0-26.773,21.779-48.552,48.552-48.552 s48.552,21.779,48.552,48.552C150.069,379.876,128.29,401.655,101.517,401.655z M101.517,322.207 c-17.039,0-30.897,13.857-30.897,30.897S84.478,384,101.517,384s30.897-13.857,30.897-30.897S118.557,322.207,101.517,322.207z"/><circle style="fill:#DCDBDE;" cx="101.517" cy="353.103" r="17.655"/><circle style="fill:#EDEDEE;" cx="410.483" cy="353.103" r="40.46"/><path style="fill:#504B5A;" d="M410.483,401.655c-26.773,0-48.552-21.779-48.552-48.552c0-26.773,21.779-48.552,48.552-48.552 s48.552,21.779,48.552,48.552C459.034,379.876,437.256,401.655,410.483,401.655z M410.483,322.207 c-17.039,0-30.897,13.857-30.897,30.897S393.443,384,410.483,384s30.897-13.857,30.897-30.897S427.522,322.207,410.483,322.207z"/><circle style="fill:#DCDBDE;" cx="410.483" cy="353.103" r="17.655"/><path style="fill:#625D6B;" d="M494.345,357.517h8.828c4.875,0,8.828-3.953,8.828-8.828v-17.655c0-4.875-3.953-8.828-8.828-8.828 h-8.828c-4.875,0-8.828,3.953-8.828,8.828v17.655C485.517,353.565,489.47,357.517,494.345,357.517z"/><path style="fill:#EDEDEE;" d="M494.345,286.897h8.828v26.483h-8.828c-4.875,0-8.828-3.953-8.828-8.828v-8.828 C485.517,290.849,489.47,286.897,494.345,286.897z"/><path style="fill:#625D6B;" d="M444.242,172.138h-55.828c-4.875,0-8.828,3.953-8.828,8.828v44.138c0,4.875,3.953,8.828,8.828,8.828 h82.434c4.476,0,7.56-4.49,5.953-8.668l-16.079-41.809C458.098,176.637,451.548,172.138,444.242,172.138z"/></symbol><symbol id="020-trucking" viewBox="0 0 512 512"><title>020-trucking</title><polygon style="fill:#B4E1FA;" points="441.379,220.69 344.276,220.69 344.276,132.414 423.724,132.414 "/><path style="fill:#707487;" d="M17.655,370.759h476.69c4.875,0,8.828-3.953,8.828-8.828v-61.793H8.828v61.793 C8.828,366.806,12.78,370.759,17.655,370.759z"/><polygon style="fill:#5B5D6E;" points="344.276,300.138 344.276,158.897 308.966,158.897 308.966,300.138 8.828,300.138 8.828,335.448 503.172,335.448 503.172,300.138 "/><g> <path style="fill:#FFD782;" d="M8.828,79.448h300.138c4.875,0,8.828,3.953,8.828,8.828v211.862c0,4.875-3.953,8.828-8.828,8.828 H8.828c-4.875,0-8.828-3.953-8.828-8.828V88.276C0,83.401,3.953,79.448,8.828,79.448z"/> <path style="fill:#FFD782;" d="M490.367,225.858l-41.22-11.777l-12.785-70.339c-3.06-16.793-17.673-28.983-34.741-28.983h-57.345 c-4.879,0-8.828,3.948-8.828,8.828v158.897h167.724v-39.649C503.172,234.952,497.947,228.023,490.367,225.858z M370.759,211.862 c-9.751,0-17.655-7.904-17.655-17.655v-44.138c0-4.875,3.953-8.828,8.828-8.828H410.7c4.271,0,7.93,3.058,8.687,7.262 l10.326,57.292c0.569,3.16-1.859,6.067-5.07,6.067H370.759z"/> </g><circle style="fill:#464655;" cx="414.897" cy="379.586" r="52.966"/><circle style="fill:#C7CFE2;" cx="414.897" cy="379.586" r="35.31"/><circle style="fill:#AFB9D2;" cx="414.897" cy="379.586" r="13.241"/><circle style="fill:#464655;" cx="88.276" cy="379.586" r="52.966"/><circle style="fill:#C7CFE2;" cx="88.276" cy="379.586" r="35.31"/><circle style="fill:#AFB9D2;" cx="88.276" cy="379.586" r="13.241"/><path style="fill:#FFC36E;" d="M344.276,361.931h3.372c3.343,0,6.4-1.889,7.895-4.879l19.164-38.326 c2.99-5.982,9.103-9.76,15.791-9.76h48.798c6.687,0,12.801,3.778,15.791,9.76l19.164,38.326c1.495,2.99,4.552,4.879,7.895,4.879 h21.026c4.875,0,8.828-3.953,8.828-8.828V291.31c0-9.751-7.904-17.655-17.655-17.655H335.448v79.448 C335.448,357.978,339.401,361.931,344.276,361.931z"/><path style="fill:#AFB9D2;" d="M308.966,388.414H220.69c-4.875,0-8.828-3.953-8.828-8.828v-35.31c0-4.875,3.953-8.828,8.828-8.828 h88.276c4.875,0,8.828,3.953,8.828,8.828v35.31C317.793,384.461,313.841,388.414,308.966,388.414z"/><g> <path style="fill:#959CB3;" d="M247.172,353.103L247.172,353.103c-4.875,0-8.828,3.953-8.828,8.828v26.483H256v-26.483 C256,357.056,252.047,353.103,247.172,353.103z"/> <path style="fill:#959CB3;" d="M282.483,353.103L282.483,353.103c-4.875,0-8.828,3.953-8.828,8.828v26.483h17.655v-26.483 C291.31,357.056,287.358,353.103,282.483,353.103z"/> </g><path style="fill:#FFC36E;" d="M291.31,291.31H26.483c-4.875,0-8.828-3.953-8.828-8.828l0,0c0-4.875,3.953-8.828,8.828-8.828H291.31 c4.875,0,8.828,3.953,8.828,8.828l0,0C300.138,287.358,296.185,291.31,291.31,291.31z"/></symbol></svg>
